<?xml version="1.0" encoding="utf-8"?>
<!-- Generator: Adobe Illustrator 25.2.1, SVG Export Plug-In . SVG Version: 6.00 Build 0)  -->
<svg version="1.1" id="Layer_1" xmlns="http://www.w3.org/2000/svg" xmlns:xlink="http://www.w3.org/1999/xlink" x="0px" y="0px"
	 viewBox="0 0 270.4 25.6" style="enable-background:new 0 0 270.4 25.6;" xml:space="preserve">
<style type="text/css">
	.st0{fill:#D56878;}
</style>
<g>
	<path class="st0" d="M19,25l-2.6-7.2H6.1L3.4,25H0L9.5,0.6h3.6L22.6,25H19z M7.1,15.1h8.4l-3.3-9.3l-0.8-2.5l-0.8,2.5L7.1,15.1z"/>
	<path class="st0" d="M52.5,25h-3.2l-0.7-6.5c-0.3-2.9-1.5-4-4.4-4h-7.6V25h-3.2V0.6h11.3c4.6,0,7.5,2.5,7.5,6.5
		c0,3.1-1.7,5.4-4.4,6.1c2.2,0.4,3.5,1.8,3.7,4.1L52.5,25z M43.6,11.7c3.3,0,5.3-1.6,5.3-4.4c0-2.6-1.7-4-4.8-4h-7.6v8.4
		C36.5,11.7,43.6,11.7,43.6,11.7z"/>
	<path class="st0" d="M81.5,0.6v2.8h-8.2V25h-3.2V3.3h-8.2V0.6H81.5z"/>
	<path class="st0" d="M108.7,0.6h3.2V25h-3.2V13.4h-13V25h-3.2V0.6h3.2v10.1h13V0.6z"/>
	<path class="st0" d="M127.1,22c-2.2-2.4-3.2-5.5-3.2-9.2s1.1-6.8,3.2-9.1c2.1-2.4,4.9-3.5,8.3-3.5s6.2,1.2,8.4,3.5
		C145.9,6,147,9,147,12.8s-1.1,6.9-3.2,9.2c-2.2,2.4-5,3.6-8.4,3.6C132,25.6,129.2,24.4,127.1,22z M135.4,22.8c2.5,0,4.5-0.9,6-2.7
		c1.5-1.8,2.3-4.2,2.3-7.3c0-3-0.8-5.4-2.3-7.2s-3.5-2.7-6-2.7s-4.5,0.9-6,2.7s-2.3,4.2-2.3,7.2s0.8,5.4,2.3,7.3
		C131,21.9,133,22.8,135.4,22.8z"/>
	<path class="st0" d="M162.2,22.2H175V25h-16V0.6h3.2V22.2z"/>
	<path class="st0" d="M186.1,22c-2.2-2.4-3.2-5.5-3.2-9.2s1.1-6.8,3.2-9.1c2.1-2.4,4.9-3.5,8.3-3.5c3.4,0,6.2,1.2,8.4,3.5
		C204.9,6,206,9,206,12.8s-1.1,6.9-3.2,9.2c-2.2,2.4-5,3.6-8.4,3.6C191,25.6,188.2,24.4,186.1,22z M194.4,22.8c2.5,0,4.5-0.9,6-2.7
		c1.5-1.8,2.3-4.2,2.3-7.3c0-3-0.8-5.4-2.3-7.2s-3.5-2.7-6-2.7s-4.5,0.9-6,2.7s-2.3,4.2-2.3,7.2s0.8,5.4,2.3,7.3
		C189.9,21.9,191.9,22.8,194.4,22.8z"/>
	<path class="st0" d="M229.3,11.9h10.6V25h-2.3l-0.7-3.3c-1.8,2.6-4.4,3.9-8,3.9c-3.4,0-6.2-1.2-8.4-3.5s-3.2-5.4-3.2-9.4
		c0-3.9,1.1-7,3.2-9.3c2.1-2.3,5-3.4,8.6-3.4c2.8,0,5.1,0.7,7,2c1.9,1.4,3,3.2,3.4,5.6l-3.1,0.2c-0.7-3.3-3.4-5-7.1-5
		c-5.5,0-8.7,3.7-8.7,10c0,3,0.8,5.4,2.2,7.2c1.5,1.8,3.5,2.7,6.2,2.7c4.2,0,6.9-2.5,7.8-6.7v-1.3h-7.4v-2.8H229.3z"/>
	<path class="st0" d="M266.7,0.6h3.6L261.1,15v10h-3.2V15l-9.6-14.4h3.9l6.3,10l1.1,1.8l1.1-1.8L266.7,0.6z"/>
</g>
</svg>
