<?xml version="1.0" encoding="utf-8"?>
<!-- Generator: Adobe Illustrator 25.2.1, SVG Export Plug-In . SVG Version: 6.00 Build 0)  -->
<svg version="1.1" id="Layer_1" xmlns="http://www.w3.org/2000/svg" xmlns:xlink="http://www.w3.org/1999/xlink" x="0px" y="0px"
	 viewBox="0 0 154.1 130.1" style="enable-background:new 0 0 154.1 130.1;" xml:space="preserve">
<style type="text/css">
	.st0{fill:#D56878;}
</style>
<g>
	<path class="st0" d="M33.1,50.2c-0.6-2.7-1-4.3-1-4.9c-3.5,4.3-8.6,6.4-15.1,6.4c-10.3,0-17-5.9-17-14.9C0,28.9,4.9,24,14.9,22
		l17-3.6v-3.6c0-3.5-2.8-5.3-8.3-5.3c-5.4,0-8.1,1.9-8.7,6.5L2.7,15.8C3.5,5,10.4,0,23.6,0c14.2,0,21.2,6.1,21.2,18.3V40
		c0,4.7,0.7,8.1,1.9,10.3H33.1V50.2z M31.9,30.6V27l-12.5,2.7c-4.3,0.9-6.4,2.9-6.4,6.2c0,3.5,2.9,5.9,7.7,5.9
		C27.3,41.7,31.9,37.5,31.9,30.6z"/>
</g>
<path class="st0" d="M54.5,130.1v-14.3h15.7v14.3H54.5z"/>
<path class="st0" d="M81.6,74.5V62.4H95v12.2L81.6,74.5L81.6,74.5z M81.6,130.1V81H95v49.1H81.6z"/>
<path class="st0" d="M129,130.1c-7.3,0-13.4-2.5-18.1-7.4c-4.7-4.8-7-11-7-18.5s2.4-13.7,7-18.6c4.7-4.8,10.7-7.3,18.1-7.3
	c7.3,0,13.4,2.5,18.1,7.3c4.7,4.9,7,11.1,7,18.6s-2.4,13.7-7,18.5C142.4,127.6,136.3,130.1,129,130.1z M129,119.6
	c3.7,0,6.7-1.4,8.9-4.2s3.2-6.6,3.2-11.3s-1-8.6-3.2-11.3s-5.2-4.2-8.9-4.2c-3.7,0-6.7,1.4-8.8,4.2s-3.3,6.6-3.3,11.3
	s1.1,8.6,3.3,11.3S125.3,119.6,129,119.6z"/>
<polygon class="st0" points="18,130.1 0,130.1 91.1,0 109.1,0 "/>
</svg>
